<svg width="144.17mm" height="165.67mm" fill="currentColor" version="1.1" viewBox="0 0 144.17 165.67" xml:space="preserve"
  xmlns="http://www.w3.org/2000/svg">
  <g transform="translate(.00026 -.00031462)">
    <path d="m14.574 8.6944 91.1 90.596a4.4783 4.4783 0 0 0 7.6361-3.1743l0.023-91.228a4.552 4.552 0 0 0-4.5352-4.5531l-90.618-0.3343a5.0871 5.0871 0 0 0-3.6059 8.6941z" style=""/>
    <path d="m46.056 161.43-0.0012-97.944c-1.4e-5 -1.1217-0.44637-2.1974-1.2406-2.9896l-37.681-37.585c-2.6329-2.6262-7.1269-0.76151-7.1271 2.9573l-0.0067 135.52a4.2787 4.2787 0 0 0 4.279 4.2789l37.546-2e-3a4.2317 4.2317 0 0 0 4.2315-4.2318z" style=""/>
    <path d="m66.494 165.67h73.294a4.3817 4.3817 0 0 0 3.1087-7.4695l-73.357-73.853a4.4042 4.4042 0 0 0-7.5289 3.1037v73.736a4.4832 4.4832 0 0 0 4.4832 4.4832z" style=""/>
  </g>
</svg>
